<svg width="144" height="148" viewBox="0 0 144 148" fill="none" xmlns="http://www.w3.org/2000/svg">
<path d="M71.7872 1.18652L5.12305 25.299L15.6564 115.067L71.858 146.814L128.349 114.638L138.879 24.8723L71.7872 1.18652Z" fill="#B3B3B3"/>
<path d="M132.228 30.0604L71.6309 8.82129V139.229L122.414 110.342L132.228 30.0604Z" fill="#A6120D"/>
<path d="M12.6016 30.4425L21.6308 110.726L71.6303 139.228V8.81836L12.6016 30.4425Z" fill="#DD1B16"/>
<path d="M88.3122 78.2432L71.6318 86.2607H54.0503L45.7849 107.506L30.4141 107.799L71.6318 13.5557L88.3122 78.2432ZM86.6989 74.2068L71.7421 43.7731L59.4728 73.683H71.6307L86.6989 74.2068Z" fill="#F2F2F2"/>
<path d="M71.6289 13.5557L71.7392 43.7731L85.661 73.7061H71.6593L71.6289 86.241L90.989 86.2607L100.036 107.802L114.745 108.081L71.6289 13.5557Z" fill="#B3B3B3"/>
</svg>
