<svg width="162" height="147" viewBox="0 0 162 147" fill="none" xmlns="http://www.w3.org/2000/svg">
<path d="M112.936 6.72483H103.591L113.31 16.2948V20.8506H93.2926V15.5161H103.01L93.2926 5.94619V1.38574H112.936V6.72483ZM89.3236 6.72483H79.9782L89.697 16.2948V20.8506H69.6786V15.5161H79.3973L69.6786 5.94619V1.38574H89.3236V6.72483ZM65.9425 6.94303H55.858V15.2933H65.9425V20.8506H48.6895V1.38574H65.9425V6.94303Z" fill="#131313"/>
<path d="M34.947 134.029L24.6992 29.7363H137.298L127.041 134.012L80.9297 145.614L34.947 134.029Z" fill="#1572B6"/>
<path d="M81.002 136.747L118.261 127.373L127.026 38.2646H81.002V136.747Z" fill="#33A9DC"/>
<path d="M81 76.0494H99.6528L100.942 62.9515H81V50.1602H116.348L116.01 53.5917L112.546 88.8395H81V76.0494Z" fill="white"/>
<path d="M81.0841 109.269L81.0221 109.285L65.3232 105.438L64.3183 95.2363H50.1699L52.1456 115.32L81.0195 122.593L81.0853 122.576L81.0841 109.269Z" fill="#EBEBEB"/>
<path d="M98.4552 88.2988L96.7567 105.429L81.0352 109.28V122.588L109.933 115.32L110.146 113.159L112.599 88.2988H98.4552Z" fill="white"/>
<path d="M81.0485 50.1602V62.9503H46.9994L46.7159 60.0758L46.0742 53.5917L45.7363 50.1602H81.0485ZM80.9992 76.0505V88.8418H65.4991L65.2168 85.9673L64.5739 79.4821L64.236 76.0505H80.9992Z" fill="#EBEBEB"/>
</svg>
