<svg width="128" height="128" viewBox="0 0 128 128" fill="none" xmlns="http://www.w3.org/2000/svg">
<path fill-rule="evenodd" clip-rule="evenodd" d="M73.8008 50.7998H85.1008V62.2998H90.8008C93.4008 62.2998 96.1008 61.7998 98.6008 60.9998C99.8008 60.5998 101.201 59.9998 102.401 59.2998C100.801 57.1998 100.001 54.5998 99.8008 51.9998C99.5008 48.4998 100.201 43.8998 102.601 41.1998L103.801 39.7998L105.201 40.8998C108.801 43.7998 111.701 47.6998 112.301 52.2998C116.601 50.9998 121.601 51.2998 125.401 53.4998L126.901 54.3998L126.101 55.9998C122.901 62.1998 116.201 64.1998 109.701 63.7998C99.9008 88.0998 78.7008 99.5998 52.9008 99.5998C39.6008 99.5998 27.4008 94.5998 20.4008 82.7998L20.3008 82.5998L19.3008 80.4998C16.9008 75.2998 16.2008 69.5998 16.7008 63.8998L16.9008 62.1998H26.5008V50.7998H37.8008V39.5998H60.3008V28.2998H73.8008V50.7998Z" fill="#3A4D54"/>
<path d="M110.4 55.1004C111.2 49.2004 106.8 44.6004 104 42.4004C100.9 46.0004 100.4 55.6004 105.3 59.6004C102.5 62.0004 96.8 64.3004 90.8 64.3004H18.6C18 70.5004 19.1 76.2004 21.6 81.1004L22.4 82.6004C22.9 83.5004 23.5 84.3004 24.1 85.2004C27.1 85.4004 29.8 85.5004 32.3 85.4004C37.2 85.3004 41.2 84.7004 44.3 83.7004C44.8 83.5004 45.2 83.8004 45.4 84.2004C45.6 84.7004 45.3 85.1004 44.9 85.3004C44.5 85.4004 44.1 85.6004 43.6 85.7004C41.2 86.4004 38.6 86.8004 35.3 87.0004H34.7C33.4 87.1004 32 87.1004 30.5 87.1004C28.9 87.1004 27.4 87.1004 25.6 87.0004C31.6 93.8004 41 97.8004 52.8 97.8004C77.8 97.8004 99 86.7004 108.3 61.9004C115 62.6004 121.4 60.9004 124.3 55.2004C119.8 52.5004 113.8 53.4004 110.4 55.1004Z" fill="#00AADA"/>
<path d="M110.399 55.1004C111.199 49.2004 106.799 44.6004 103.999 42.4004C100.899 46.0004 100.399 55.6004 105.299 59.6004C102.499 62.0004 96.7991 64.3004 90.7991 64.3004H22.7991C22.4991 73.8004 25.9991 81.0004 32.2991 85.3004C37.1991 85.2004 41.1991 84.6004 44.2991 83.6004C44.7991 83.4004 45.1991 83.7004 45.3991 84.1004C45.5991 84.6004 45.2991 85.0004 44.8991 85.2004C44.4991 85.3004 44.0991 85.5004 43.5991 85.6004C41.1991 86.3004 38.3991 86.8004 35.0991 87.0004L34.9991 86.9004C43.4991 91.3004 55.7991 91.2004 69.9991 85.8004C85.7991 79.7004 100.599 68.1004 110.899 54.9004C110.699 55.0004 110.499 55.0004 110.399 55.1004Z" fill="#28B8EB"/>
<path d="M18.6992 71.7998C19.0992 75.0998 20.0992 78.1998 21.5992 81.0998L22.3992 82.5998C22.8992 83.4998 23.4992 84.2998 24.0992 85.1998C27.0992 85.3998 29.7992 85.4998 32.2992 85.3998C37.1992 85.2998 41.1992 84.6998 44.2992 83.6998C44.7992 83.4998 45.1992 83.7998 45.3992 84.1998C45.5992 84.6998 45.2992 85.0998 44.8992 85.2998C44.4992 85.3998 44.0992 85.5998 43.5992 85.6998C41.1992 86.3998 38.3992 86.8998 35.0992 87.0998H34.6992C33.3992 87.1998 31.9992 87.1998 30.5992 87.1998C28.9992 87.1998 27.3992 87.1998 25.6992 87.0998C31.6992 93.8998 41.1992 97.8998 52.9992 97.8998C74.3992 97.8998 92.9992 89.7998 103.799 71.8998H18.6992V71.7998Z" fill="#028BB8"/>
<path d="M23.5 71.7998C24.8 77.5998 27.8 82.1998 32.3 85.2998C37.2 85.1998 41.2 84.5998 44.3 83.5998C44.8 83.3998 45.2 83.6998 45.4 84.0998C45.6 84.5998 45.3 84.9998 44.9 85.1998C44.5 85.2998 44.1 85.4998 43.6 85.5998C41.2 86.2998 38.4 86.7998 35 86.9998C43.5 91.3998 55.8 91.2998 69.9 85.8998C78.4 82.5998 86.7 77.6998 94.1 71.7998H23.5Z" fill="#019BC6"/>
<path fill-rule="evenodd" clip-rule="evenodd" d="M28.4004 52.7H38.2004V62.5H28.4004V52.7ZM29.2004 53.5H30.0004V61.6H29.2004V53.5ZM30.6004 53.5H31.4004V61.6H30.6004V53.5ZM32.1004 53.5H32.9004V61.6H32.1004V53.5ZM33.6004 53.5H34.4004V61.6H33.6004V53.5ZM35.1004 53.5H35.9004V61.6H35.1004V53.5ZM36.6004 53.5H37.4004V61.6H36.6004V53.5ZM39.6004 41.5H49.4004V51.3H39.6004V41.5ZM40.5004 42.3H41.3004V50.4H40.5004V42.3ZM41.9004 42.3H42.7004V50.4H41.9004V42.3ZM43.4004 42.3H44.2004V50.4H43.4004V42.3ZM44.9004 42.3H45.7004V50.4H44.9004V42.3ZM46.3004 42.3H47.1004V50.4H46.3004V42.3ZM47.8004 42.3H48.6004V50.4H47.8004V42.3Z" fill="#00ACD3"/>
<path fill-rule="evenodd" clip-rule="evenodd" d="M39.5996 52.7002H49.3996V62.5002H39.5996V52.7002ZM40.4996 53.5002H41.2996V61.6002H40.4996V53.5002ZM41.8996 53.5002H42.6996V61.6002H41.8996V53.5002ZM43.3996 53.5002H44.1996V61.6002H43.3996V53.5002ZM44.8996 53.5002H45.6996V61.6002H44.8996V53.5002ZM46.2996 53.5002H47.0996V61.6002H46.2996V53.5002ZM47.7996 53.5002H48.5996V61.6002H47.7996V53.5002Z" fill="#23C2EE"/>
<path fill-rule="evenodd" clip-rule="evenodd" d="M50.9004 52.7002H60.7004V62.5002H50.9004V52.7002ZM51.7004 53.5002H52.5004V61.6002H51.7004V53.5002ZM53.2004 53.5002H54.0004V61.6002H53.2004V53.5002ZM54.7004 53.5002H55.5004V61.6002H54.7004V53.5002ZM56.1004 53.5002H56.9004V61.6002H56.1004V53.5002ZM57.6004 53.5002H58.4004V61.6002H57.6004V53.5002ZM59.1004 53.5002H59.9004V61.6002H59.1004V53.5002Z" fill="#00ACD3"/>
<path fill-rule="evenodd" clip-rule="evenodd" d="M50.9004 41.5H60.7004V51.3H50.9004V41.5ZM51.7004 42.3H52.5004V50.4H51.7004V42.3ZM53.2004 42.3H54.0004V50.4H53.2004V42.3ZM54.7004 42.3H55.5004V50.4H54.7004V42.3ZM56.1004 42.3H56.9004V50.4H56.1004V42.3ZM57.6004 42.3H58.4004V50.4H57.6004V42.3ZM59.1004 42.3H59.9004V50.4H59.1004V42.3ZM62.2004 52.7H72.0004V62.5H62.2004V52.7ZM63.0004 53.5H63.8004V61.6H63.0004V53.5ZM64.5004 53.5H65.3004V61.6H64.5004V53.5ZM65.9004 53.5H66.7004V61.6H65.9004V53.5ZM67.4004 53.5H68.2004V61.6H67.4004V53.5ZM68.9004 53.5H69.7004V61.6H68.9004V53.5ZM70.4004 53.5H71.2004V61.6H70.4004V53.5Z" fill="#23C2EE"/>
<path fill-rule="evenodd" clip-rule="evenodd" d="M62.1992 41.5H71.9992V51.3H62.1992V41.5ZM62.9992 42.3H63.7992V50.4H62.9992V42.3ZM64.4992 42.3H65.2992V50.4H64.4992V42.3ZM65.8992 42.3H66.6992V50.4H65.8992V42.3ZM67.3992 42.3H68.1992V50.4H67.3992V42.3ZM68.8992 42.3H69.6992V50.4H68.8992V42.3ZM70.3992 42.3H71.1992V50.4H70.3992V42.3Z" fill="#00ACD3"/>
<path fill-rule="evenodd" clip-rule="evenodd" d="M62.1992 30.2002H71.9992V40.0002H62.1992V30.2002ZM62.9992 31.0002H63.7992V39.1002H62.9992V31.0002ZM64.4992 31.0002H65.2992V39.1002H64.4992V31.0002ZM65.8992 31.0002H66.6992V39.1002H65.8992V31.0002ZM67.3992 31.0002H68.1992V39.1002H67.3992V31.0002ZM68.8992 31.0002H69.6992V39.1002H68.8992V31.0002ZM70.3992 31.0002H71.1992V39.1002H70.3992V31.0002Z" fill="#23C2EE"/>
<path fill-rule="evenodd" clip-rule="evenodd" d="M73.5 52.7002H83.3V62.5002H73.5V52.7002ZM74.3 53.5002H75.1V61.6002H74.3V53.5002ZM75.7 53.5002H76.5V61.6002H75.7V53.5002ZM77.2 53.5002H78V61.6002H77.2V53.5002ZM78.7 53.5002H79.5V61.6002H78.7V53.5002ZM80.2 53.5002H81V61.6002H80.2V53.5002ZM81.7 53.5002H82.5V61.6002H81.7V53.5002Z" fill="#00ACD3"/>
<path fill-rule="evenodd" clip-rule="evenodd" d="M48.7996 78.2998C50.2996 78.2998 51.4996 79.4998 51.4996 80.9998C51.4996 82.4998 50.2996 83.6998 48.7996 83.6998C47.2996 83.6998 46.0996 82.4998 46.0996 80.9998C46.0996 79.4998 47.2996 78.2998 48.7996 78.2998Z" fill="#D4EEF1"/>
<path fill-rule="evenodd" clip-rule="evenodd" d="M48.7996 79.0996C48.9996 79.0996 49.2996 79.0996 49.4996 79.1996C49.2996 79.2996 49.0996 79.5996 49.0996 79.8996C49.0996 80.2996 49.4996 80.6996 49.8996 80.6996C50.1996 80.6996 50.4996 80.4996 50.5996 80.2996C50.6996 80.4996 50.6996 80.7996 50.6996 80.9996C50.6996 82.0996 49.7996 82.8996 48.7996 82.8996C47.6996 82.8996 46.8996 81.9996 46.8996 80.9996C46.8996 79.9996 47.6996 79.0996 48.7996 79.0996ZM1.09961 72.7996H126.5C123.8 72.0996 117.9 71.1996 118.8 67.5996C113.8 73.2996 101.9 71.5996 98.7996 68.7996C95.3996 73.6996 75.7996 71.7996 74.4996 67.9996C70.2996 72.9996 57.1996 72.9996 52.9996 67.9996C51.5996 71.7996 31.9996 73.6996 28.6996 68.7996C25.6996 71.5996 13.6996 73.2996 8.69961 67.5996C9.79961 71.0996 3.79961 72.0996 1.09961 72.7996Z" fill="#3A4D54"/>
<path d="M56.0004 97.7996C49.3004 94.5996 45.7004 90.2996 43.6004 85.5996C41.1004 86.2996 38.1004 86.7996 34.7004 86.9996C33.4004 87.0996 32.0004 87.0996 30.6004 87.0996C28.9004 87.0996 27.2004 87.0996 25.4004 86.9996C31.4004 92.9996 39.0004 97.6996 52.9004 97.7996H56.0004Z" fill="#BFDBE0"/>
<path d="M46.0992 89.8996C45.1992 88.5996 44.2992 87.0996 43.5992 85.5996C41.0992 86.2996 38.0992 86.7996 34.6992 86.9996C36.9992 88.1996 40.3992 89.3996 46.0992 89.8996Z" fill="#D4EEF1"/>
</svg>
