<svg width="128" height="128" viewBox="0 0 128 128" fill="none" xmlns="http://www.w3.org/2000/svg">
<path d="M124.737 58.3783L69.621 3.26429C66.449 0.0902891 61.301 0.0902891 58.124 3.26429L46.68 14.7103L61.198 29.2283C64.573 28.0893 68.441 28.8533 71.13 31.5423C73.833 34.2483 74.591 38.1493 73.424 41.5353L87.416 55.5283C90.801 54.3613 94.708 55.1153 97.41 57.8233C101.19 61.6003 101.19 67.7233 97.41 71.5023C96.5117 72.401 95.4452 73.1139 94.2713 73.6003C93.0974 74.0867 91.8392 74.3371 90.5685 74.3371C89.2978 74.3371 88.0396 74.0867 86.8657 73.6003C85.6919 73.1139 84.6253 72.401 83.727 71.5023C82.3774 70.1518 81.4574 68.4324 81.0829 66.5602C80.7083 64.6881 80.8959 62.747 81.622 60.9813L68.574 47.9333L68.572 82.2743C69.5187 82.7405 70.383 83.3579 71.131 84.1023C74.909 87.8793 74.909 94.0003 71.131 97.7853C67.352 101.562 61.227 101.562 57.452 97.7853C53.674 94.0013 53.674 87.8803 57.452 84.1023C58.3572 83.1957 59.4338 82.4784 60.619 81.9923V47.3333C59.4328 46.8485 58.3559 46.1307 57.452 45.2223C54.59 42.3623 53.901 38.1623 55.369 34.6463L41.056 20.3333L3.26401 58.1233C1.73933 59.6485 0.882812 61.7167 0.882812 63.8733C0.882813 66.0299 1.73933 68.0981 3.26401 69.6233L58.381 124.737C61.555 127.911 66.701 127.911 69.88 124.737L124.738 69.8793C126.262 68.3537 127.119 66.2852 127.118 64.1286C127.118 61.9719 126.262 59.9036 124.737 58.3783Z" fill="#F34F29"/>
</svg>
