<svg width="128" height="128" viewBox="0 0 128 128" fill="none" xmlns="http://www.w3.org/2000/svg">
<path d="M19.0363 113.876L9.03125 1.66113H118.967L108.951 113.859L63.9323 126.339L19.0363 113.876Z" fill="#E44D26"/>
<path d="M64 116.8L100.378 106.714L108.937 10.8359H64V116.8Z" fill="#F16529"/>
<path d="M63.9993 52.4546H45.7873L44.5293 38.3606H63.9993V24.5986H29.4883L29.8183 28.2906L33.2003 66.2176H63.9993V52.4546ZM63.9993 88.1976L63.9383 88.2146L48.6113 84.0746L47.6323 73.0996H33.8153L35.7433 94.7086L63.9363 102.535L63.9993 102.518V88.1976Z" fill="#EBEBEB"/>
<path d="M63.9512 52.4546V66.2176H80.8982L79.3012 84.0666L63.9512 88.2096V102.529L92.1662 94.7086L92.3732 92.3836L95.6072 56.1506L95.9422 52.4546H92.2342H63.9512ZM63.9512 24.5986V38.3606H97.1952L97.4712 35.2686L98.0992 28.2906L98.4282 24.5986H63.9512Z" fill="white"/>
</svg>
