<svg width="128" height="128" viewBox="0 0 128 128" fill="none" xmlns="http://www.w3.org/2000/svg">
<path d="M116.949 97.8071C110.086 97.6201 104.845 98.2591 100.364 100.148C99.0908 100.685 97.0588 100.7 96.8508 102.295C97.5508 103.028 97.6598 104.124 98.2158 105.026C99.2858 106.756 101.092 109.078 102.704 110.294C104.466 111.624 106.281 113.045 108.169 114.196C111.527 116.243 115.276 117.413 118.509 119.464C120.415 120.674 122.308 122.197 124.167 123.561C125.087 124.236 125.704 125.285 126.899 125.708V125.514C126.271 124.714 126.109 123.616 125.533 122.781L122.996 120.244C120.516 116.952 117.367 114.06 114.02 111.659C111.351 109.743 105.378 107.155 104.265 104.05L104.07 103.855C105.962 103.641 108.177 102.957 109.924 102.488C112.858 101.702 115.48 101.905 118.509 101.123L122.606 99.9521V99.1721C121.075 97.6011 119.983 95.5211 118.314 94.0991C113.944 90.3791 109.176 86.6621 104.266 83.5621C101.542 81.8441 98.1768 80.7271 95.2898 79.2701C94.3188 78.7791 92.6128 78.5241 91.9718 77.7081C90.4548 75.7761 89.6298 73.3261 88.4608 71.0751C86.0118 66.3581 83.6068 61.2071 81.4368 56.2441C79.9568 52.8601 78.9898 49.5241 77.1438 46.4881C68.2838 31.9211 58.7478 23.1301 43.9748 14.4881C40.8308 12.6501 37.0458 11.9251 33.0458 10.9751C30.9008 10.8461 28.7538 10.7151 26.6078 10.5841C25.2968 10.0381 23.9348 8.43509 22.7058 7.65709C17.8118 4.56509 5.25785 -2.15991 1.63385 6.68209C-0.655152 12.2631 5.05485 17.7071 7.09585 20.5361C8.52985 22.5181 10.3648 24.7431 11.3888 26.9741C12.0628 28.4411 12.1788 29.9121 12.7558 31.4631C14.1728 35.2851 15.4078 39.4431 17.2428 42.9741C18.1698 44.7621 19.1918 46.6441 20.3648 48.2421C21.0828 49.2231 22.3158 49.6551 22.5098 51.1691C21.3058 52.8551 21.2368 55.4731 20.5598 57.6091C17.5098 67.2241 18.6608 79.1761 23.0968 86.2921C24.4568 88.4781 27.6638 93.1631 32.0718 91.3651C35.9278 89.7951 35.0668 84.9271 36.1698 80.6331C36.4188 79.6601 36.2659 78.9441 36.7548 78.2921V78.4871L40.2678 85.5111C42.8678 89.6981 47.4798 94.0731 51.3898 97.0251C53.4168 98.5561 55.0128 101.202 57.6338 102.098V101.902H57.4388C56.9308 101.111 56.1358 100.783 55.4878 100.147C53.9608 98.6501 52.2628 96.7891 51.0008 95.0741C47.4448 90.2471 44.3028 84.9641 41.4398 79.4651C40.0718 76.8381 38.8828 73.9421 37.7308 71.2691C37.2868 70.2391 37.2928 68.6801 36.3668 68.1471C35.1038 70.1051 33.2449 71.6891 32.2688 74.0011C30.7078 77.6971 30.5068 82.2051 29.9278 86.8791C29.5858 87.0011 29.7378 86.9171 29.5368 87.0731C26.8188 86.4181 25.8648 83.6211 24.8538 81.2201C22.2998 75.1501 21.8248 65.3781 24.0728 58.3911C24.6548 56.5821 27.2828 50.8901 26.2188 49.2191C25.7108 47.5531 24.0348 46.5891 23.0978 45.3161C21.9368 43.7421 20.7788 41.6701 19.9738 39.8521C17.8838 35.1211 16.9078 29.8081 14.7068 25.0241C13.6538 22.7371 11.8748 20.4221 10.4138 18.3901C8.79685 16.1371 6.98485 14.4781 5.73085 11.7551C5.28485 10.7871 4.67985 9.23709 5.33985 8.24209C5.54985 7.57109 5.84785 7.29109 6.51085 7.07209C7.64285 6.19909 10.7948 7.36209 11.9728 7.85109C15.1018 9.15109 17.7138 10.3891 20.3648 12.1451C21.6358 12.9891 22.9238 14.6201 24.4618 15.0721H26.2178C28.9648 15.7031 32.0418 15.2671 34.6088 16.0471C39.1448 17.4251 43.2098 19.5701 46.9008 21.9011C58.1469 29.0031 67.3428 39.1111 73.6329 51.1701C74.6449 53.1121 75.0828 54.9641 75.9738 57.0241C77.7718 61.1771 80.0368 65.4501 81.8258 69.5121C83.6118 73.5641 85.3518 77.6531 87.8758 81.0251C89.2029 82.7971 94.3268 83.7481 96.6568 84.7331C98.2888 85.4221 100.964 86.1421 102.511 87.0731C105.464 88.8551 108.326 90.9761 111.097 92.9281C112.48 93.9031 116.737 96.0441 116.949 97.8071ZM29.7298 23.4661C28.2988 23.4391 27.2868 23.6221 26.2168 23.8551V24.0501H26.4118C27.0948 25.4521 28.2998 26.3561 29.1428 27.5631C29.7928 28.9301 30.4438 30.2951 31.0948 31.6601L31.2888 31.4671C32.4978 30.6141 33.0508 29.2531 33.0438 27.1731C32.5598 26.6641 32.4888 26.0261 32.0688 25.4181C31.5128 24.6071 30.4338 24.1461 29.7298 23.4661Z" fill="#00618A"/>
</svg>
