<svg width="128" height="128" viewBox="0 0 128 128" fill="none" xmlns="http://www.w3.org/2000/svg">
<g clip-path="url(#clip0_317_29)">
<path d="M64.0005 0.730469C29.1145 0.730469 0.730469 29.1135 0.730469 64.0005C0.730469 98.8875 29.1145 127.27 64.0005 127.27C98.8885 127.27 127.27 98.8865 127.27 64.0005C127.27 29.1145 98.8875 0.730469 64.0005 0.730469ZM67.3355 120.9V109.912L94.7755 96.0125C95.0985 95.8492 95.3699 95.5994 95.5593 95.2909C95.7488 94.9824 95.8489 94.6275 95.8485 94.2655V87.9755C97.1212 87.5342 98.2076 86.6761 98.9318 85.5403C99.6559 84.4045 99.9754 83.0575 99.8385 81.7175C99.7679 80.9288 99.5414 80.1621 99.172 79.4617C98.8027 78.7614 98.2979 78.1414 97.6869 77.6377C97.076 77.134 96.3711 76.7568 95.6131 76.5278C94.8552 76.2988 94.0593 76.2226 93.2717 76.3038C92.4841 76.3849 91.7204 76.6217 91.0251 77.0004C90.3297 77.3791 89.7166 77.8921 89.2211 78.5098C88.7257 79.1274 88.3579 79.8373 88.1391 80.5982C87.9203 81.3592 87.8548 82.156 87.9465 82.9425C88.0633 84.0739 88.5009 85.1484 89.2077 86.0395C89.9146 86.9306 90.8613 87.6012 91.9365 87.9725V93.0625L67.3365 105.522V95.3025L78.1795 90.2855C78.5179 90.1288 78.8046 89.8787 79.0057 89.5646C79.2068 89.2505 79.3139 88.8854 79.3145 88.5125L79.3345 71.4865L99.4045 60.2105C100.021 59.8645 100.404 59.2105 100.404 58.5045V53.7605C101.792 53.2829 102.956 52.3113 103.673 51.031C104.39 49.7506 104.611 48.251 104.293 46.8183C103.975 45.3855 103.141 44.1199 101.95 43.2626C100.759 42.4054 99.2939 42.0166 97.8345 42.1705C96.4812 42.3095 95.216 42.9061 94.2478 43.8617C93.2796 44.8173 92.6665 46.0746 92.5098 47.4259C92.3531 48.7772 92.6622 50.1415 93.386 51.2933C94.1098 52.4451 95.205 53.3155 96.4905 53.7605V57.3665L76.4205 68.6365C75.8035 68.9865 75.4205 69.6365 75.4205 70.3425L75.4005 87.2625L67.3325 90.9925V54.2005L84.2165 45.9435C84.5456 45.7834 84.823 45.5339 85.017 45.2235C85.211 44.9132 85.3137 44.5545 85.3135 44.1885V37.8985C86.5867 37.4574 87.6736 36.5991 88.3979 35.4628C89.1221 34.3265 89.4413 32.9789 89.3035 31.6385C89.2228 30.8577 88.9891 30.1005 88.6158 29.4101C88.2424 28.7197 87.7367 28.1096 87.1275 27.6146C86.5184 27.1197 85.8176 26.7496 85.0654 26.5254C84.3132 26.3013 83.5242 26.2276 82.7435 26.3085C81.9625 26.3888 81.205 26.6222 80.5143 26.9954C79.8236 27.3686 79.2132 27.8743 78.718 28.4835C78.2228 29.0927 77.8526 29.7936 77.6284 30.546C77.4042 31.2984 77.3305 32.0876 77.4115 32.8685C77.5281 33.9996 77.9657 35.0738 78.6726 35.9644C79.3795 36.8551 80.3264 37.5251 81.4015 37.8955V42.9655L67.3335 49.8425V28.5985C68.3952 28.2306 69.3317 27.5708 70.0355 26.695C70.7394 25.8191 71.1821 24.7625 71.3129 23.6465C71.4436 22.5305 71.2572 21.4003 70.7749 20.3854C70.2926 19.3705 69.5339 18.5122 68.586 17.9088C67.6381 17.3054 66.5394 16.9814 65.4157 16.9741C64.2921 16.9667 63.1892 17.2762 62.2334 17.867C61.2777 18.4579 60.5079 19.3062 60.0123 20.3147C59.5167 21.3231 59.3154 22.4508 59.4315 23.5685C59.5485 24.6993 59.9859 25.7732 60.6924 26.6639C61.3989 27.5546 62.345 28.2251 63.4195 28.5965V63.2405L53.4765 58.0165V42.2805C53.4768 41.9802 53.4077 41.6839 53.2746 41.4147C53.1416 41.1455 52.9482 40.9106 52.7095 40.7285L45.9075 35.5185C46.4496 34.2136 46.512 32.7588 46.0836 31.4123C45.6551 30.0657 44.7636 28.9145 43.567 28.1628C42.3705 27.4111 40.9464 27.1076 39.5473 27.3061C38.1483 27.5046 36.8648 28.1922 35.9245 29.247C34.9843 30.3018 34.4481 31.6556 34.411 33.0682C34.374 34.4807 34.8386 35.8608 35.7223 36.9634C36.606 38.066 37.8517 38.8199 39.2384 39.0914C40.6251 39.3629 42.0632 39.1344 43.2975 38.4465L49.5625 43.2485V59.2005C49.5625 59.9285 49.9665 60.5955 50.6105 60.9335L63.4205 67.6635V80.3875L42.0505 70.5035L42.3425 62.7615C42.3566 62.3891 42.264 62.0205 42.0757 61.6989C41.8874 61.3774 41.6111 61.1163 41.2795 60.9465L31.4825 55.9215C31.6295 55.2915 31.6825 54.6295 31.6125 53.9515C31.4322 52.3888 30.6433 50.9602 29.4168 49.9754C28.1903 48.9905 26.625 48.5287 25.0603 48.6902C23.4956 48.8516 22.0576 49.6233 21.0581 50.8378C20.0585 52.0524 19.5779 53.612 19.7205 55.1785C19.8836 56.7552 20.6664 58.2024 21.8967 59.202C23.1269 60.2016 24.7038 60.6715 26.2805 60.5085C27.4145 60.3936 28.491 59.9532 29.3805 59.2405L38.3845 63.8565L38.0895 71.6565C38.0595 72.4465 38.5065 73.1765 39.2225 73.5065L63.4205 84.7005V93.7845C63.398 93.9557 63.398 94.1292 63.4205 94.3005V120.993C61.384 120.972 59.3502 120.843 57.3275 120.606V97.6605C57.3275 96.8945 56.8825 96.2005 56.1875 95.8825L41.0055 88.8955C41.0922 88.0137 40.9818 87.1237 40.6821 86.2899C40.3824 85.4561 39.901 84.6994 39.2728 84.0746C38.6446 83.4498 37.8852 82.9726 37.0498 82.6775C36.2144 82.3824 35.3237 82.2768 34.4425 82.3685C33.4852 82.4666 32.5658 82.7945 31.7625 83.3243C30.9591 83.854 30.2956 84.5699 29.8282 85.4111C29.3609 86.2523 29.1036 87.1939 29.0783 88.1558C29.0529 89.1178 29.2603 90.0716 29.6826 90.9363C30.105 91.8009 30.7299 92.5508 31.5043 93.1221C32.2786 93.6934 33.1794 94.0693 34.1302 94.2177C35.081 94.3662 36.0535 94.2829 36.9652 93.9748C37.8768 93.6668 38.7006 93.1432 39.3665 92.4485L53.4135 98.9115V120.003C27.0225 115.028 6.99247 91.8155 6.99247 64.0005C6.99247 32.5665 32.5665 6.99047 64.0025 6.99047C95.4355 6.99047 121.008 32.5665 121.008 64.0005C121.008 94.3155 97.2215 119.17 67.3345 120.902L67.3355 120.9Z" fill="#205081"/>
</g>
<defs>
<clipPath id="clip0_317_29">
<rect width="128" height="128" fill="white"/>
</clipPath>
</defs>
</svg>
